<svg width="89" height="88" viewBox="0 0 89 88" fill="none" xmlns="http://www.w3.org/2000/svg">
<path d="M44.5 85.25C67.2817 85.25 85.75 66.7817 85.75 44C85.75 21.2183 67.2817 2.75 44.5 2.75C21.7183 2.75 3.25 21.2183 3.25 44C3.25 66.7817 21.7183 85.25 44.5 85.25Z" fill="#FF3737"/>
<path fill-rule="evenodd" clip-rule="evenodd" d="M35.8929 40.2939C36.6522 40.2939 37.2679 40.9095 37.2679 41.6689V59.1288C37.2679 59.8881 36.6522 60.5038 35.8929 60.5038C35.1336 60.5038 34.5179 59.8881 34.5179 59.1288V41.6689C34.5179 40.9095 35.1336 40.2939 35.8929 40.2939ZM43.1249 41.6689C43.1249 40.9095 43.7405 40.2939 44.4999 40.2939C45.2592 40.2939 45.8749 40.9095 45.8749 41.6689V59.1288C45.8749 59.8881 45.2592 60.5038 44.4999 60.5038C43.7405 60.5038 43.1249 59.8881 43.1249 59.1288V41.6689ZM51.7319 41.6689C51.7319 40.9095 52.3475 40.2939 53.1069 40.2939C53.8662 40.2939 54.4819 40.9095 54.4819 41.6689V59.1288C54.4819 59.8881 53.8662 60.5038 53.1069 60.5038C52.3475 60.5038 51.7319 59.8881 51.7319 59.1288V41.6689ZM25.563 33.2052L27.6938 68.1505C27.7792 69.5516 28.9364 70.6405 30.3401 70.6405H58.6595C60.0632 70.6405 61.2206 69.5516 61.3058 68.1505L63.4366 33.2052H25.563ZM25.2272 22.5172H36.3989V20.3493C36.3989 18.7024 37.7421 17.3594 39.3888 17.3594H49.6109C51.2577 17.3594 52.6009 18.7024 52.6009 20.3493V22.5172H63.7724C65.2328 22.5172 66.4237 23.7083 66.4237 25.1685V29.596C66.4237 30.0694 66.0377 30.4554 65.5644 30.4554H23.4351C22.9617 30.4554 22.5757 30.0694 22.5757 29.596V25.1685C22.5757 23.7081 23.7669 22.5172 25.2272 22.5172Z" fill="white"/>
</svg>
